Coordinates
version=1
nRows=5
nColumns=40
inDegrees=yes

Units are S.I. units (second, meters, Newtons, ...)
Angles are in degrees.

endheader
time	pelvis_tilt	pelvis_list	pelvis_rotation	pelvis_tx	pelvis_ty	pelvis_tz	hip_flexion_r	hip_adduction_r	hip_rotation_r	knee_angle_r	knee_angle_r_beta	ankle_angle_r	subtalar_angle_r	mtp_angle_r	hip_flexion_l	hip_adduction_l	hip_rotation_l	knee_angle_l	knee_angle_l_beta	ankle_angle_l	subtalar_angle_l	mtp_angle_l	lumbar_extension	lumbar_bending	lumbar_rotation	arm_flex_r	arm_add_r	arm_rot_r	elbow_flex_r	pro_sup_r	wrist_flex_r	wrist_dev_r	arm_flex_l	arm_add_l	arm_rot_l	elbow_flex_l	pro_sup_l	wrist_flex_l	wrist_dev_l
     11.17114286	     -2.75402033	     -1.11907034	     -4.57702828	      1.06623149	      0.91815556	      0.44638069	     29.58526075	     -4.29355219	    -11.08927146	     19.99970103	     19.99970103	      3.54325970	     -1.79973211	      5.84726830	     -5.54877523	     -0.43688913	    -13.16260697	      8.82012984	      8.82012984	     19.19632540	      1.08222691	     -8.00779943	     -9.14464000	      4.12050655	      1.31829099	    -19.00721479	    -12.35881514	    -13.44748906	     19.37450537	     47.61181795	      0.00000000	      0.00000000	     24.81800192	    -20.16023360	     -4.29600790	     67.75053186	     47.17059722	      0.00000000	      0.00000000
     11.18228571	     -2.67012871	     -1.40014313	     -4.56398491	      1.06736027	      0.91651764	      0.44855433	     28.88853449	     -3.63263221	    -11.63787276	     18.77392465	     18.77392465	      3.19827515	     -0.88617552	      5.92529058	     -6.14897921	     -0.93700748	    -13.45016856	      9.38980009	      9.38980009	     20.51761061	      1.71018566	     -6.56793709	     -9.28200295	      4.39053572	      1.30607511	    -20.41405734	    -12.36164524	    -14.39960022	     20.66326528	     47.60894379	      0.00000000	      0.00000000	     23.80397294	    -20.08547900	     -5.79770109	     72.35598141	     47.37030451	      0.00000000	      0.00000000
     11.19342857	     -2.65490854	     -1.58407752	     -4.54274711	      1.06850789	      0.91469382	      0.45087307	     28.68699294	     -3.14544403	    -11.76791330	     18.74228211	     18.74228211	      2.94484963	     -0.86254172	      5.62374251	     -6.70263546	     -1.29873743	    -13.38597251	      9.80391723	      9.80391723	     21.12866819	      1.54295526	     -6.36801548	     -9.16423718	      4.57502180	      1.65625972	    -21.51591370	    -12.32639140	    -14.52181967	     20.40978130	     47.61490938	      0.00000000	      0.00000000	     24.07288214	    -19.88035429	     -6.14943770	     73.75358224	     47.42560545	      0.00000000	      0.00000000
     11.20457143	     -2.65228594	     -1.72148902	     -4.49472354	      1.06982870	      0.91304176	      0.45341600	     28.48552947	     -2.71041752	    -11.61298272	     18.99271731	     18.99271731	      1.88947610	     -1.55932399	      2.81143076	     -7.10526040	     -1.72095732	    -13.62856002	     10.58413209	     10.58413209	     22.43785790	      2.15401835	     -4.60528062	     -9.08328757	      4.65427101	      1.22295769	    -22.36083915	    -12.43931457	    -15.14773673	     21.40479303	     47.58978925	      0.00000000	      0.00000000	     23.00493570	    -20.18462482	     -7.56136497	     77.14152808	     47.60140204	      0.00000000	      0.00000000
     11.21571429	     -2.69696228	     -1.91695170	     -4.43223060	      1.07113625	      0.91156388	      0.45604515	     28.50825544	     -2.32061659	    -11.44618414	     19.92808720	     19.92808720	      1.54341586	     -2.31590327	      1.57501465	     -7.45017141	     -2.18106817	    -13.51158754	     11.28311489	     11.28311489	     22.98960367	      1.95869602	     -4.23099949	     -8.87820530	      4.82357608	      1.55169603	    -23.09145335	    -12.35898551	    -15.21928844	     21.14685286	     47.58766545	      0.00000000	      0.00000000	     22.98613446	    -19.82235510	     -7.97494460	     78.50387331	     47.66434591	      0.00000000	      0.00000000
